<svg width="447" height="370" viewBox="0 0 447 370" fill="none" xmlns="http://www.w3.org/2000/svg">
<g filter="url(#filter0_di_23_285)">
<path d="M104.352 26.3525C89.122 11.1221 64.06 10.9668 51.9438 28.7749C36.3591 51.6806 25.4433 77.5885 19.9871 105.019C11.9806 145.27 16.0898 186.991 31.795 224.907C47.5002 262.822 74.096 295.23 108.219 318.03C142.342 340.83 182.46 353 223.5 353C264.54 353 304.658 340.83 338.781 318.03C372.904 295.23 399.5 262.822 415.205 224.907C430.91 186.991 435.019 145.27 427.013 105.019C421.557 77.5885 410.641 51.6806 395.056 28.7749C382.94 10.9668 357.878 11.1221 342.647 26.3525L308.455 60.545C293.225 75.7754 294.442 100.604 300.905 121.151C301.782 123.94 302.511 126.783 303.085 129.669C306.216 145.41 304.609 161.725 298.468 176.553C292.326 191.38 281.926 204.053 268.581 212.969C255.237 221.885 239.549 226.645 223.5 226.645C207.451 226.645 191.763 221.886 178.419 212.969C165.074 204.053 154.674 191.38 148.532 176.553C142.391 161.725 140.784 145.41 143.915 129.669C144.489 126.783 145.218 123.94 146.095 121.151C152.558 100.604 153.775 75.7754 138.545 60.545L104.352 26.3525Z" fill="#FFB800"/>
</g>
<defs>
<filter id="filter0_di_23_285" x="-0.00012207" y="0.159607" width="447" height="369.84" filterUnits="userSpaceOnUse" color-interpolation-filters="sRGB">
<feFlood flood-opacity="0" result="BackgroundImageFix"/>
<feColorMatrix in="SourceAlpha" type="matrix" values="0 0 0 0 0 0 0 0 0 0 0 0 0 0 0 0 0 0 127 0" result="hardAlpha"/>
<feOffset dy="1"/>
<feGaussianBlur stdDeviation="8"/>
<feComposite in2="hardAlpha" operator="out"/>
<feColorMatrix type="matrix" values="0 0 0 0 0 0 0 0 0 0.22 0 0 0 0 1 0 0 0 0.57 0"/>
<feBlend mode="normal" in2="BackgroundImageFix" result="effect1_dropShadow_23_285"/>
<feBlend mode="normal" in="SourceGraphic" in2="effect1_dropShadow_23_285" result="shape"/>
<feColorMatrix in="SourceAlpha" type="matrix" values="0 0 0 0 0 0 0 0 0 0 0 0 0 0 0 0 0 0 127 0" result="hardAlpha"/>
<feOffset/>
<feGaussianBlur stdDeviation="16.5"/>
<feComposite in2="hardAlpha" operator="arithmetic" k2="-1" k3="1"/>
<feColorMatrix type="matrix" values="0 0 0 0 1 0 0 0 0 0 0 0 0 0 0 0 0 0 0.6 0"/>
<feBlend mode="normal" in2="shape" result="effect2_innerShadow_23_285"/>
</filter>
</defs>
</svg>
